<svg xmlns="http://www.w3.org/2000/svg" xmlns:ns1="http://sodipodi.sourceforge.net/DTD/sodipodi-0.dtd" xmlns:ns2="http://www.inkscape.org/namespaces/inkscape" width="52" height="104" version="1.1" viewBox="0 0 26 52" ns1:docname="btn__stem_controls_collapse.svg" ns2:version="1.3.2 (091e20e, 2023-11-25, custom)" fill="#ffb10a">
  <ns1:namedview id="namedview13" pagecolor="#ffffff" bordercolor="#000000" borderopacity="0.25" ns2:showpageshadow="2" ns2:pageopacity="0.0" ns2:pagecheckerboard="0" ns2:deskcolor="#d1d1d1" ns2:zoom="8.5673077" ns2:cx="25.970819" ns2:cy="52" ns2:window-width="1920" ns2:window-height="1129" ns2:window-x="-8" ns2:window-y="-8" ns2:window-maximized="1" ns2:current-layer="g7" />
  <g fill="#ffb10a" id="g13">
   <path id="path11" d="M 3.5 27.5 L 3.5 29.5 L 7.4824219 29.5 L 11.484375 29.5 L 21.5 29.5 L 21.5 27.5 L 12.787109 27.5 L 9.7753906 27.5 L 3.5 27.5 z " />
    <path id="path11-1" d="m 3.4996,32.5001 v 2 H 7.482022 11.483975 21.4996 v -2 H 12.786709 9.7749902 Z" />
    <path id="path11-13" d="m 3.5001004,37.5004 v 2 H 7.4825224 11.484475 21.5001 v -2 H 12.787209 9.7754914 Z" />
    <path id="path11-8" d="m 3.5000995,42.5004 v 2 H 7.4825215 11.484475 21.5001 v -2 H 12.787209 9.7754905 Z" />
    <path d="m5.3641 18.098 4.4253-4.4252-4.4253-4.4252 1.1064-1.1063 5.5315 5.5315-5.5315 5.5315z" stroke-width=".93992" id="path12" />
    <path d="m20.636 18.098-4.4253-4.4253 4.4253-4.4253-1.1064-1.1064-5.5315 5.5315 5.5315 5.5316 1.1064-1.1064z" stroke-width=".93992" id="path13" />
  </g>
</svg>
