<svg xmlns="http://www.w3.org/2000/svg" width="59" height="5" version="1.1"><rect x="0" y="0" width="3" height="5" fill="#939a9f"/><rect x="4" y="0" width="3" height="5" fill="#939a9f"/><rect x="8" y="0" width="3" height="5" fill="#939a9f"/><rect x="12" y="0" width="3" height="5" fill="#939a9f"/><rect x="16" y="0" width="3" height="5" fill="#939a9f"/><rect x="20" y="0" width="3" height="5" fill="#939a9f"/><rect x="24" y="0" width="3" height="5" fill="#939a9f"/><rect x="28" y="0" width="3" height="5" fill="#939a9f"/><rect x="32" y="0" width="3" height="5" fill="#939a9f"/><rect x="36" y="0" width="3" height="5" fill="#e4e6e7"/><rect x="40" y="0" width="3" height="5" fill="#e4e6e7"/><rect x="44" y="0" width="3" height="5" fill="#e4e6e7"/><rect x="48" y="0" width="3" height="5" fill="#f7f7f8"/><rect x="52" y="0" width="3" height="5" fill="#f7f7f8"/><rect x="56" y="0" width="3" height="5" fill="#f7f7f8"/></svg>
