<svg xmlns="http://www.w3.org/2000/svg" width="6" height="81" version="1.1"><rect x="0" y="78" width="6" height="3" fill="#939a9f"/><rect x="0" y="74" width="6" height="3" fill="#939a9f"/><rect x="0" y="70" width="6" height="3" fill="#939a9f"/><rect x="0" y="66" width="6" height="3" fill="#939a9f"/><rect x="0" y="62" width="6" height="3" fill="#939a9f"/><rect x="0" y="58" width="6" height="3" fill="#939a9f"/><rect x="0" y="54" width="6" height="3" fill="#939a9f"/><rect x="0" y="50" width="6" height="3" fill="#939a9f"/><rect x="0" y="46" width="6" height="3" fill="#939a9f"/><rect x="0" y="42" width="6" height="3" fill="#939a9f"/><rect x="0" y="38" width="6" height="3" fill="#939a9f"/><rect x="0" y="34" width="6" height="3" fill="#939a9f"/><rect x="0" y="30" width="6" height="3" fill="#e4e6e7"/><rect x="0" y="26" width="6" height="3" fill="#e4e6e7"/><rect x="0" y="22" width="6" height="3" fill="#e4e6e7"/><rect x="0" y="18" width="6" height="3" fill="#e4e6e7"/><rect x="0" y="14" width="6" height="3" fill="#e4e6e7"/><rect x="0" y="10" width="6" height="3" fill="#f7f7f8"/><rect x="0" y="6" width="6" height="3" fill="#f7f7f8"/><rect x="0" y="2" width="6" height="3" fill="#f7f7f8"/></svg>
